<?xml version="1.0" encoding="utf-8"?>
<!-- Generator: Adobe Illustrator 23.0.3, SVG Export Plug-In . SVG Version: 6.00 Build 0)  -->
<svg version="1.1" id="Layer_1" xmlns="http://www.w3.org/2000/svg" xmlns:xlink="http://www.w3.org/1999/xlink" x="0px" y="0px"
	 viewBox="0 0 418 529.7" style="enable-background:new 0 0 418 529.7;" xml:space="preserve">
<style type="text/css">
	.st0{fill:url(#SVGID_3_);stroke:#F3735F;stroke-miterlimit:10;}
	.st1{clip-path:url(#SVGID_5_);}
	.st2{fill:none;stroke:#F3735F;stroke-miterlimit:10;}
	.st3{clip-path:url(#SVGID_11_);}
	.st4{fill:none;stroke:#263C82;stroke-miterlimit:10;}
	.st5{fill:#FFFFFF;}
	.st6{font-family:'Impact';}
	.st7{font-size:146.9434px;}
	.st8{font-size:156.1385px;}
</style>
<g>
	
		<image style="overflow:visible;opacity:0.4;" width="2655" height="2358" xlink:href="CBB0C10F.png"  transform="matrix(0.24 0 0 0.24 -98.7392 -28.7612)">
	</image>
	<g>
		<g>
			<g>
				<defs>
					<rect id="SVGID_1_" x="23.4" y="5.1" width="366.2" height="519.4"/>
				</defs>
				<clipPath id="SVGID_2_">
					<use xlink:href="#SVGID_1_"  style="overflow:visible;"/>
				</clipPath>
			</g>
		</g>
		<g>
			<linearGradient id="SVGID_3_" gradientUnits="userSpaceOnUse" x1="64.8754" y1="538.8989" x2="381.3302" y2="-9.217">
				<stop  offset="0" style="stop-color:#351B59"/>
				<stop  offset="1" style="stop-color:#1C0B3F"/>
			</linearGradient>
			<rect x="40" y="5.1" class="st0" width="366.2" height="519.4"/>
			<g>
				<defs>
					<rect id="SVGID_4_" x="23.4" y="5.1" width="366.2" height="519.4"/>
				</defs>
				<clipPath id="SVGID_5_">
					<use xlink:href="#SVGID_4_"  style="overflow:visible;"/>
				</clipPath>
				<g class="st1">
					<path class="st2" d="M330.9,253.4c-3.2-5.8-5.6-10.8-3.6-17.4c2.7-8.9,9.3-17.5,14.4-25.2c20.5-30.5,45.9-62.7,42.9-101.8
						c-2.4-32-23.5-60.3-52.1-74.1c-16-7.7-32.8-10.8-50.5-10.1c-16.2,0.6-30.8,2.2-45.3-6.2C210.5,3.4,189.9-21,157.4-22.1
						c-25.7-0.8-49,13.5-62.9,34.3c-7.9,10.7-12.7,23.9-14.2,38.7c-1.5,14.3-0.2,28.6-0.6,42.9c-0.3,12.4-1.5,26.6-11.7,35.2
						c-11.4,9.5-28.8,10.3-42.8,12.1c-17.9,2.3-35.8,5.4-52.7,12.1c-31.3,12.5-59,37.8-63.8,72.8c-5.2,38.2,21.6,66.7,47.7,90.3
						c10.9,9.9,30,23.3,29.1,39.9c-0.9,16.2-13.8,31.5-19.4,46.5C-56.5,463.3-1.5,527.5,60,524.4c31.6-1.6,62.2-16.9,81.8-41.8
						c10.9-13.9,17.6-31.5,30.8-43.4c10.7-9.7,24.6-14.3,38.3-18c31.3-8.3,64.1-12,91.2-31.5c28.2-20.3,48.4-52.5,45.8-88.4
						C346.7,283.2,339.5,268.9,330.9,253.4z"/>
					<path class="st2" d="M328.6,40.2c-15.5-7.5-31.8-10.6-49-10.1c-13.8,0.4-26.4,1.6-38.9-3.7c-1.7-0.7-3.4-1.5-5-2.5
						C210.2,9.3,190-14,158.5-14.9C133.6-15.7,111-2,97.3,17.9C89.5,28.2,84.7,40.9,83,55c-1.6,13.7-0.7,27.5-1.2,41.3
						c-0.5,12-1.8,25.7-11.7,34c-11,9.3-27.7,10.2-41.2,12.2C11.8,145-5.5,147.8-21.5,155c-16.8,7.6-31.1,19.5-41.8,34.2
						c-8.6,11.9-14.8,26.1-17.4,42c-5.9,35.7,16.8,62.8,40.1,85.9c1,1,2.1,2,3.1,3.1c10.2,9.9,28.3,23.4,27.5,39.8
						c-0.8,16-12.8,31.2-17.9,45.9C-48.3,465.1,5.3,527,65.5,524.3c30.9-1.4,60.9-16.1,80.4-40.1c10.7-13.3,17.5-30.2,30.4-41.7
						c10.4-9.3,24-13.9,37.2-17.5c30.4-8.3,62.3-12,88.2-31.4c14.4-10.8,26.1-25.1,34.2-41.1c7-13.7,11.5-28.6,11.9-44.1
						c0-1.4,0-2.9,0-4.4c-0.4-17.9-6.4-32.1-14.1-47.7c-2.8-5.8-5-10.8-3-17.4c2.7-9,9.1-17.6,14.1-25.4
						c17.3-27.3,37.3-55.8,38.6-88.1c0.2-4.4,0-8.8-0.5-13.3c-1.2-9.6-4.1-18.8-8.4-27.4c-6.1-12-14.8-22.7-25.3-31.5
						C342.7,48.1,335.9,43.7,328.6,40.2z"/>
					<path class="st2" d="M324.6,45.4c-15-7.3-30.8-10.4-47.4-10c-13.4,0.3-25.6,1.3-37.7-3.7c-1.6-0.7-3.3-1.5-4.9-2.4
						c-24.7-14-44.5-36.2-75-37c-24.1-0.7-46.1,12.4-59.6,31.5c-7.6,9.8-12.4,22-14.3,35.5C84,72.3,84.7,85.6,84,98.8
						c-0.6,11.5-2.1,24.7-11.6,32.8c-10.6,9-26.7,10.2-39.6,12.3c-16.5,2.7-33.2,5.3-48.1,12.8c-16.3,8.2-28.8,21.2-38.2,36.4
						c-7.6,12.3-13.2,27-16.4,43.1c-6.8,34.8,14.2,61.5,35.8,84.6c1,1,2,2,2.9,3.1c9.5,10,26.6,23.5,25.9,39.7
						C-6,379.4-17.1,394.5-21.7,409C-40.1,467,12.1,526.5,70.9,524.1c30.2-1.2,59.7-15.2,78.9-38.3c10.6-12.7,17.3-28.9,29.9-40
						c10.2-9,23.3-13.5,36.1-17.1c29.5-8.3,60.5-12.1,85.1-31.4c14.3-11.2,25.1-26,33.1-42.3c6.9-13.9,11.9-28.7,13-44.1
						c0.1-1.4,0.2-2.9,0.2-4.3c0.5-17.6-4.4-31.9-11.1-47.6c-2.5-5.8-4.4-10.8-2.4-17.3c2.8-9,9-17.7,13.7-25.6
						c16.5-27.6,34.8-56.5,34.3-88c-0.1-4.3-0.4-8.5-1.2-12.9c-1.6-9.3-4.9-18.1-9.5-26.3c-6.5-11.5-15.4-21.9-26.1-30.5
						C338.8,53.3,331.9,48.9,324.6,45.4z"/>
					<path class="st2" d="M320.6,50.6c-14.5-7.1-29.8-10.1-45.8-10c-12.9,0.2-24.7,1-36.4-3.8c-1.6-0.7-3.2-1.4-4.7-2.3
						c-24-13.4-43.3-34.4-72.8-35.2c-23.3-0.6-44.7,11.9-57.9,30.1c-7.5,9.4-12.3,21-14.3,33.9c-1.9,12.6-1.6,25.3-2.4,38
						c-0.8,11.1-2.4,23.7-11.5,31.6c-10.3,8.8-25.6,10.2-38,12.4c-15.7,2.9-31.8,5.3-45.8,13.2c-15.8,8.9-26.5,23-34.7,38.7
						c-6.7,12.8-11.7,27.9-15.3,44.3c-7.6,33.9,11.5,60.1,31.5,83.2c0.9,1,1.8,2,2.7,3.1c8.8,10.1,24.9,23.5,24.3,39.5
						c-0.6,15.6-10.9,30.6-15.1,44.9C-31.9,468.8,19,526,76.4,523.9c29.5-1.1,58.5-14.3,77.5-36.5c10.4-12.1,17.1-27.6,29.4-38.3
						c9.9-8.6,22.6-13,35.1-16.6c28.5-8.2,58.6-12.1,82.1-31.3c14.2-11.6,24.2-26.9,32.1-43.5c6.8-14.2,12.3-28.9,14.2-44.1
						c0.2-1.4,0.3-2.8,0.4-4.3c1.3-17.4-2.3-31.6-8.1-47.4c-2.1-5.8-3.8-10.8-1.8-17.3c2.8-9,8.8-17.8,13.3-25.8
						c15.8-28,32.2-57.2,30-88c-0.3-4.1-0.9-8.3-1.8-12.5c-2-9-5.7-17.4-10.6-25.3c-6.9-11-16-21-26.9-29.6
						C334.9,58.5,328,54.1,320.6,50.6z"/>
					<path class="st2" d="M316.6,55.9c-14-6.9-28.7-9.9-44.2-9.9c-12.5,0-23.9,0.8-35.2-3.9c-1.5-0.6-3.1-1.4-4.6-2.2
						c-23.2-12.8-42.1-32.7-70.7-33.4c-22.6-0.6-43.2,11.4-56.2,28.7c-7.3,8.9-12.1,20-14.3,32.4c-2.1,12-2,24.2-3.1,36.4
						c-1,10.6-2.6,22.7-11.5,30.4c-9.9,8.5-24.5,10.1-36.4,12.5c-15,3.1-30.5,5.4-43.5,13.6c-15.4,9.7-24.1,24.7-31.1,40.9
						c-5.7,13.2-10.1,28.7-14.3,45.4c-8.3,33,8.8,58.7,27.3,81.9c0.8,1,1.7,2,2.5,3.1C-10.5,341.8,4.5,355.2,4,371
						c-0.5,15.4-10,30.2-13.6,44.4c-14.2,55.2,35.3,110.1,91.4,108.3c28.9-0.9,57.2-13.5,76.1-34.8c10.2-11.6,17-26.4,29-36.6
						c9.7-8.3,22-12.6,34-16.2c27.6-8.2,56.7-12.2,79.1-31.2c14-11.9,23.2-27.9,31-44.7c6.7-14.4,12.8-29.1,15.3-44
						c0.2-1.4,0.5-2.8,0.6-4.2c2.2-17.2-0.3-31.3-5.2-47.2c-1.8-5.8-3.2-10.8-1.2-17.3c2.9-9.1,8.7-17.9,13-26
						c15-28.4,29.6-57.9,25.8-87.9c-0.5-4-1.3-8.1-2.5-12.1c-2.5-8.6-6.5-16.7-11.7-24.2c-7.3-10.5-16.7-20.2-27.7-28.6
						C331,63.6,324,59.4,316.6,55.9z"/>
					<path class="st2" d="M312.6,61.1c-13.5-6.7-27.7-9.7-42.7-9.8c-12-0.1-23,0.5-34-3.9c-1.5-0.6-3-1.3-4.4-2.1
						c-22.5-12.2-41-31-68.5-31.6c-21.8-0.5-41.8,10.8-54.5,27.3c-7.2,8.5-12,19.1-14.3,30.8c-2.3,11.5-2.4,23-3.7,34.7
						c-1.1,10.2-2.9,21.8-11.4,29.2c-9.5,8.3-23.5,10.1-34.7,12.7c-14.2,3.3-29.2,5.5-41.3,13.9c-15,10.5-21.8,26.5-27.5,43.2
						c-4.7,13.6-8.5,29.6-13.3,46.5c-9,32.2,6.2,57.4,23,80.5c0.7,1,1.5,2,2.3,3.1c7.5,10.3,21.5,23.6,21.1,39.3
						c-0.4,15.3-9,29.9-12.2,43.8c-12.1,53.8,36.1,106.4,90.8,105c28.2-0.7,55.9-12.6,74.6-33c10.1-11,16.8-25.1,28.5-35
						c9.4-8,21.3-12.2,32.9-15.7c26.7-8.2,54.8-12.3,76-31.1c13.9-12.3,22.3-28.8,29.9-45.9c6.6-14.7,13.2-29.3,16.5-44
						c0.3-1.4,0.6-2.8,0.9-4.2c3-17,1.8-31-2.2-47c-1.4-5.7-2.7-10.8-0.6-17.3c3-9.1,8.6-18,12.6-26.2c14.3-28.7,27-58.6,21.5-87.8
						c-0.7-3.9-1.8-7.8-3.1-11.7c-2.9-8.3-7.3-16-12.8-23.2c-7.8-10.1-17.3-19.3-28.5-27.6C327.1,68.8,320,64.6,312.6,61.1z"/>
					<path class="st2" d="M308.6,66.4c-13-6.5-26.7-9.5-41.1-9.8c-11.6-0.2-22.2,0.3-32.8-4c-1.4-0.6-2.9-1.2-4.3-2
						c-21.7-11.6-39.8-29.3-66.3-29.8c-21-0.4-40.3,10.3-52.8,25.9c-7.1,8.1-11.8,18.1-14.3,29.2c-2.4,10.9-2.9,21.9-4.3,33.1
						c-1.3,9.7-3.2,20.8-11.3,27.9c-9.2,8-22.4,10-33.1,12.8c-13.5,3.5-27.9,5.7-39,14.3c-14.7,11.3-19.4,28.3-24,45.4
						c-3.8,14-6.9,30.5-12.2,47.7c-9.7,31.3,3.5,56,18.7,79.2c0.7,1,1.4,2,2.1,3.1c6.8,10.4,19.8,23.7,19.5,39.1
						C13,393.5,5.2,408,2.6,421.7c-10.1,52.4,36.8,102.7,90.2,101.6c27.5-0.6,54.7-11.8,73.2-31.2c9.9-10.4,16.6-23.8,28.1-33.3
						c9.2-7.6,20.7-11.8,31.9-15.3c25.7-8.1,52.9-12.5,73-31c13.8-12.7,21.3-29.7,28.9-47.1c6.5-14.9,13.6-29.4,17.6-44
						c0.4-1.4,0.7-2.7,1.1-4.1c3.9-16.7,3.8-30.8,0.7-46.9c-1.1-5.7-2.1-10.9,0-17.2c3-9.1,8.4-18.1,12.3-26.5
						c13.5-29.1,24.4-59.3,17.2-87.8c-1-3.8-2.2-7.6-3.7-11.3c-3.3-8-8.1-15.4-13.9-22.2c-8.2-9.6-18-18.5-29.3-26.7
						C323.1,74,316,69.8,308.6,66.4z"/>
					<path class="st2" d="M304.6,71.6c-12.5-6.3-25.7-9.3-39.5-9.7c-11.1-0.3-21.4,0-31.5-4.1c-1.4-0.6-2.8-1.2-4.1-1.9
						c-21-11-38.6-27.6-64.1-28c-20.2-0.4-38.9,9.7-51.1,24.5C107.2,60,102.4,69.5,99.8,80c-2.6,10.3-3.3,20.8-4.9,31.4
						c-1.4,9.3-3.5,19.8-11.3,26.7c-8.8,7.8-21.4,10-31.5,12.9c-12.8,3.6-26.5,6-36.7,14.7C1,177.9-1.7,195.7-5,213.4
						c-2.8,14.5-5.3,31.4-11.2,48.8c-10.3,30.4,0.9,54.6,14.5,77.9c0.6,1,1.2,2,1.8,3.1c6.1,10.5,18.1,23.8,17.9,39
						c-0.2,14.9-7.1,29.2-9.3,42.8c-8.1,50.9,37.5,99,89.5,98.2c26.8-0.4,53.4-10.9,71.8-29.4c9.7-9.8,16.5-22.5,27.6-31.6
						c8.9-7.3,20-11.3,30.8-14.8c24.8-8.1,51-12.7,69.9-31c13.6-13.1,20.3-30.6,27.8-48.3c6.4-15.2,14.1-29.6,18.7-44
						c0.4-1.4,0.9-2.7,1.3-4.1c4.7-16.5,5.8-30.5,3.7-46.7c-0.7-5.7-1.5-10.9,0.6-17.2c3.1-9.1,8.3-18.2,11.9-26.7
						c12.8-29.5,21.9-60,13-87.7c-1.2-3.7-2.6-7.4-4.4-10.9c-3.8-7.7-8.9-14.7-15-21.1c-8.7-9.1-18.6-17.6-30.1-25.7
						C319.2,79.2,312.1,75,304.6,71.6z"/>
					<path class="st2" d="M300.6,76.9c-12-6.1-24.6-9.1-37.9-9.7c-10.6-0.4-20.5-0.2-30.3-4.1c-1.3-0.5-2.7-1.1-4-1.8
						c-20.2-10.4-37.4-25.9-62-26.2c-19.4-0.3-37.4,9.2-49.5,23.1c-6.8,7.2-11.6,16.2-14.3,26.1C99.9,94,98.8,103.9,97,114
						c-1.6,8.8-3.7,18.9-11.2,25.5c-8.4,7.5-20.3,9.9-29.9,13c-12,3.8-23.8,8.1-34.4,15C10,182.9,6.8,199.3,4.6,217.4
						c-1.8,14.9-3.6,32.2-10.2,50c-10.9,29.5-1.8,53.2,10.2,76.5c0.5,1,1.1,2,1.6,3.1c5.4,10.6,16.4,23.8,16.3,38.8
						c-0.1,14.7-6.2,28.8-7.8,42.2c-6.1,49.5,38.2,95.3,88.9,94.9c26.2-0.2,52.2-10.1,70.3-27.7c9.5-9.2,16.3-21.3,27.1-29.9
						c8.7-6.9,19.4-10.9,29.7-14.4c23.8-8.1,49.1-12.9,66.9-30.9c13.5-13.6,19.4-31.5,26.7-49.5c6.3-15.4,14.5-29.8,19.9-44
						c0.5-1.3,1-2.7,1.5-4c5.6-16.3,7.8-30.2,6.6-46.5c-0.4-5.7-0.9-10.9,1.2-17.2c3.1-9.2,8.1-18.3,11.5-26.9
						c12-29.8,19.3-60.7,8.7-87.6c-1.4-3.6-3.1-7.1-5-10.6c-4.2-7.4-9.7-14-16.1-20.1c-9.1-8.6-19.3-16.8-30.9-24.8
						C315.3,84.4,308.1,80.3,300.6,76.9z"/>
					<path class="st2" d="M296.6,82.1c-11.5-5.9-23.6-8.9-36.3-9.6c-10.2-0.5-19.7-0.5-29.1-4.2c-1.3-0.5-2.6-1.1-3.9-1.7
						c-19.4-9.8-36.2-24.2-59.8-24.4c-18.7-0.2-36,8.7-47.8,21.7c-6.7,6.8-11.4,15.2-14.4,24.5c-2.9,9.2-4.2,18.6-6.2,28.1
						c-1.8,8.4-4,17.9-11.2,24.3c-8,7.3-19.2,9.9-28.3,13.1c-11.3,4-22.3,8.4-32.1,15.4c-10.7,16.5-12.3,33.6-13.3,52.1
						c-0.8,15.4-2,33.1-9.2,51.1c-11.4,28.7-4.4,51.8,5.9,75.2c0.5,1,1,2,1.4,3.1c4.7,10.7,14.7,23.9,14.7,38.7
						c0,14.5-5.3,28.5-6.4,41.7c-4.1,48,39,91.7,88.3,91.5c25.5-0.1,50.9-9.2,68.9-25.9c9.3-8.7,16.1-20,26.7-28.2
						c8.4-6.6,18.7-10.5,28.6-13.9c22.9-8,47.1-13.2,63.9-30.8c13.3-14,18.4-32.5,25.7-50.7c6.2-15.6,15-30,21-44
						c0.6-1.3,1.2-2.7,1.7-4c6.4-16,9.8-29.8,9.6-46.3c-0.1-5.6-0.3-10.9,1.8-17.2c3.2-9.2,8-18.4,11.2-27.1
						c11.3-30.2,16.7-61.4,4.4-87.6c-1.6-3.5-3.5-6.9-5.7-10.2c-4.6-7-10.5-13.3-17.2-19c-9.5-8.1-19.9-16-31.7-23.8
						C311.4,89.6,304.1,85.5,296.6,82.1z"/>
					<path class="st2" d="M292.6,87.3c-11-5.7-22.6-8.7-34.8-9.5c-9.7-0.7-18.8-0.8-27.9-4.3c-1.2-0.5-2.5-1-3.7-1.6
						c-18.7-9.2-35-22.4-57.6-22.7c-17.9-0.2-34.5,8.1-46.1,20.3c-6.5,6.3-11.3,14.2-14.4,23c-3,8.6-4.6,17.5-6.8,26.5
						c-1.9,7.9-4.3,16.9-11.1,23.1c-7.7,7-18.2,9.8-26.7,13.2c-10.6,4.2-20.8,8.8-29.8,15.7c-10,17.5-9.9,35.3-9.7,54.4
						c0.2,15.8-0.3,34-8.1,52.3c-11.9,27.8-7,50.4,1.6,73.9c0.4,1,0.8,2,1.2,3.1c4,10.8,13,24,13.1,38.6c0.1,14.3-4.4,28.1-5,41.2
						c-2.2,46.5,39.7,88,87.6,88.1c24.8,0.1,49.6-8.4,67.5-24.1c9.2-8.1,16-18.7,26.2-26.5c8.2-6.2,18-10,27.6-13.5
						c22-8,45.1-13.4,60.8-30.7c13.1-14.5,17.5-33.4,24.6-51.9c6.1-15.9,15.4-30.2,22.2-43.9c0.6-1.3,1.3-2.6,1.9-3.9
						c7.3-15.8,11.8-29.5,12.6-46.2c0.3-5.6,0.3-10.9,2.5-17.2c3.2-9.2,7.8-18.5,10.8-27.3c10.5-30.6,14.2-62.1,0.2-87.5
						c-1.9-3.4-4-6.6-6.3-9.8c-5.1-6.7-11.3-12.6-18.3-18c-10-7.7-20.6-15.1-32.5-22.8C307.4,94.8,300.2,90.7,292.6,87.3z"/>
					<path class="st2" d="M288.6,92.6c-10.5-5.5-21.6-8.5-33.2-9.5c-9.3-0.8-18-1-26.7-4.3c-1.2-0.4-2.4-1-3.6-1.5
						c-17.9-8.6-33.8-20.7-55.5-20.9c-17.1-0.1-33.1,7.6-44.4,18.9c-6.4,5.9-11.2,13.2-14.4,21.4c-3.2,8.1-5,16.4-7.4,24.9
						c-2.1,7.5-4.6,15.9-11,21.9c-7.3,6.8-17.1,9.8-25,13.3c-9.8,4.4-19.2,9.1-27.5,16.1c-9.3,18.6-7.6,37.1-6.2,56.6
						c1.2,16.2,1.4,34.9-7.1,53.4c-12.4,27-9.7,49-2.6,72.5c0.3,1,0.7,2,1,3.1c3.3,10.9,11.3,24,11.5,38.4
						c0.2,14.1-3.4,27.7-3.5,40.7c-0.3,45,40.4,84.3,87,84.8c24.1,0.3,48.3-7.5,66-22.4c9-7.5,15.8-17.4,25.7-24.8
						c7.9-5.9,17.4-9.6,26.5-13.1c21-7.9,43.1-13.7,57.8-30.6c13-14.9,16.5-34.3,23.5-53.1c6-16.1,15.8-30.3,23.3-43.9
						c0.7-1.3,1.4-2.6,2.1-3.9c8.1-15.6,13.8-29.2,15.5-46c0.6-5.6,0.8-10.9,3.1-17.1c3.3-9.3,7.7-18.6,10.5-27.6
						c9.8-30.9,11.6-62.8-4.1-87.5c-2.1-3.3-4.4-6.4-6.9-9.4c-5.5-6.4-12.1-11.9-19.4-16.9c-10.4-7.2-21.2-14.3-33.3-21.9
						C303.5,100,296.2,96,288.6,92.6z"/>
					<path class="st2" d="M284.6,97.8c-10-5.2-20.6-8.3-31.6-9.4c-8.8-0.9-17.1-1.3-25.4-4.4c-1.1-0.4-2.3-0.9-3.4-1.4
						c-17.2-8-32.7-19-53.3-19.1c-16.3,0-31.7,7-42.7,17.5c-6.2,5.5-11,12.3-14.4,19.8c-3.4,7.5-5.5,15.3-8.1,23.2
						c-2.3,7-4.8,15-11,20.7c-6.9,6.5-16,9.7-23.4,13.4c-9.1,4.5-17.7,9.4-25.3,16.5c-8.6,19.6-5.2,38.9-2.6,58.9
						c2.2,16.7,3.1,35.8-6.1,54.6c-12.8,26.2-12.3,47.6-6.9,71.2c0.2,1,0.5,2,0.8,3.1c2.6,11,9.6,24.1,9.9,38.3
						c0.3,13.9-2.5,27.4-2.1,40.1c1.6,43.6,41.1,80.6,86.4,81.4c23.4,0.4,47-6.7,64.6-20.6c8.8-7,15.6-16.2,25.3-23.1
						c7.7-5.6,16.7-9.2,25.4-12.6c20.1-7.9,41.1-14,54.7-30.6c12.8-15.4,15.6-35.2,22.5-54.3c5.9-16.4,16.3-30.5,24.4-43.9
						c0.8-1.3,1.6-2.6,2.3-3.9c9-15.3,15.7-28.9,18.5-45.8c0.9-5.5,1.4-10.9,3.7-17.1c3.4-9.3,7.5-18.7,10.1-27.8
						c9-31.3,9-63.5-8.4-87.4c-2.3-3.2-4.8-6.2-7.6-9c-5.9-6.1-12.9-11.2-20.5-15.9c-10.8-6.7-21.8-13.4-34.1-20.9
						C299.6,105.2,292.2,101.2,284.6,97.8z"/>
					<path class="st2" d="M280.6,103.1c-9.5-5-19.5-8-30-9.4c-8.3-1-16.3-1.5-24.2-4.4c-1.1-0.4-2.2-0.8-3.3-1.3
						c-16.4-7.4-31.5-17.3-51.1-17.3c-15.5,0-30.2,6.5-41,16.1c-6.1,5-10.9,11.3-14.4,18.3c-3.5,7-5.9,14.1-8.7,21.6
						c-2.4,6.6-5.1,14-10.9,19.5c-6.6,6.3-15,9.6-21.8,13.5c-8.3,4.7-16.2,9.8-23,16.8c-7.8,20.7-2.8,40.6,0.9,61.1
						c3.1,17.1,4.9,36.7-5,55.7c-13.2,25.4-14.9,46.2-11.2,69.9c0.2,1,0.4,2,0.6,3.1c1.8,11.2,7.9,24.1,8.3,38.1
						c0.4,13.8-1.7,27-0.6,39.6c3.4,42.1,41.9,76.9,85.8,78c22.8,0.6,45.7-5.8,63.2-18.8c8.6-6.4,15.5-14.9,24.8-21.4
						c7.4-5.2,16.1-8.8,24.4-12.2c19.2-7.9,39-14.4,51.7-30.5c12.5-15.9,14.6-36.2,21.4-55.5c5.8-16.6,16.7-30.7,25.6-43.9
						c0.9-1.3,1.7-2.5,2.5-3.8c9.8-15.1,17.7-28.6,21.4-45.6c1.2-5.5,2-11,4.3-17.1c3.4-9.3,7.4-18.8,9.7-28
						c8.3-31.7,6.5-64.2-12.6-87.3c-2.5-3.1-5.3-5.9-8.2-8.6c-6.4-5.7-13.7-10.5-21.6-14.8c-11.3-6.2-22.5-12.6-34.9-19.9
						C295.7,110.3,288.3,106.4,280.6,103.1z"/>
					<path class="st2" d="M276.6,108.3c-9-4.8-18.5-7.9-28.4-9.3c-7.9-1.1-15.4-1.8-23-4.5c-1-0.4-2.1-0.8-3.1-1.2
						c-15.7-6.8-30.3-15.6-48.9-15.5c-14.8,0.1-28.8,6-39.3,14.7c-6,4.6-10.8,10.3-14.4,16.7c-3.7,6.4-6.4,13-9.3,19.9
						c-2.6,6.1-5.4,13-10.8,18.3C93,153.5,85.3,157,79,161c-7.6,4.9-14.7,10.1-20.7,17.2c-7.1,21.8-0.5,42.4,4.5,63.4
						c4.1,17.5,6.6,37.6-4,56.9C45.2,323,41.3,343.3,43.4,367c0.1,1,0.2,2,0.3,3.1c1.1,11.3,6.2,24.2,6.7,38
						c0.5,13.6-0.8,26.6,0.8,39.1c5.1,40.6,42.6,73.2,85.1,74.7c22.1,0.8,44.4-5,61.7-17.1c8.4-5.8,15.3-13.6,24.4-19.7
						c7.2-4.9,15.4-8.3,23.3-11.7c18.2-7.8,36.9-14.7,48.7-30.4c12.3-16.5,13.7-37.1,20.3-56.7c5.7-16.9,17.2-30.8,26.7-43.9
						c0.9-1.3,1.9-2.5,2.8-3.8c10.6-14.9,19.6-28.3,24.4-45.5c1.5-5.5,2.6-11,4.9-17.1c3.5-9.3,7.2-18.9,9.4-28.2
						c7.5-32.1,3.9-64.9-16.9-87.3c-2.8-3-5.7-5.7-8.9-8.2c-6.8-5.4-14.5-9.8-22.7-13.8c-11.7-5.7-23.1-11.7-35.7-19
						C291.7,115.5,284.3,111.7,276.6,108.3z"/>
					<path class="st2" d="M272.6,113.5c-8.5-4.6-17.5-7.6-26.9-9.2c-7.4-1.3-14.6-2.1-21.8-4.6c-1-0.3-2-0.7-3-1.1
						c-14.9-6.2-29.1-13.9-46.8-13.7c-14,0.2-27.3,5.4-37.7,13.3c-5.8,4.2-10.6,9.3-14.4,15.1c-3.8,5.8-6.8,11.9-9.9,18.3
						c-2.8,5.7-5.7,12.1-10.8,17.1c-5.8,5.8-12.9,9.5-18.6,13.7c-6.9,5-13.2,10.5-18.4,17.6c-6.4,22.8,1.9,44.1,8.1,65.6
						c5.1,18,8.4,38.6-3,58c-14,23.8-20.1,43.4-19.7,67.2c0,1,0.1,2,0.1,3.1c0.3,11.4,4.5,24.3,5.1,37.9c0.6,13.4,0.1,26.3,2.2,38.6
						c6.9,39.1,43.3,69.5,84.5,71.3c21.4,0.9,43.1-4.2,60.3-15.3c8.2-5.3,15.1-12.3,23.9-18c6.9-4.5,14.8-7.9,22.2-11.3
						c17.3-7.8,34.8-15.1,45.6-30.3c12-17,12.7-38,19.3-57.8c5.6-17.1,17.6-31,27.9-43.8c1-1.2,2-2.5,3-3.7
						c11.5-14.7,21.5-28,27.4-45.3c1.8-5.4,3.2-11,5.5-17.1c3.6-9.4,7.1-19,9-28.4c6.8-32.4,1.4-65.6-21.2-87.2
						c-3-2.9-6.2-5.4-9.5-7.8c-7.2-5.1-15.3-9.1-23.8-12.7c-12.2-5.2-23.8-10.9-36.5-18C287.8,120.7,280.3,116.9,272.6,113.5z"/>
					<path class="st2" d="M268.6,118.8c-8-4.4-16.5-7.4-25.3-9.2c-7-1.4-13.7-2.3-20.5-4.6c-0.9-0.3-1.9-0.7-2.8-1
						c-14.1-5.6-27.9-12.1-44.6-11.9c-13.2,0.2-25.9,4.9-36,11.9c-5.7,3.7-10.5,8.4-14.5,13.6c-4,5.3-7.3,10.8-10.6,16.6
						c-3,5.2-5.9,11.1-10.7,15.9c-5.4,5.5-11.8,9.4-17,13.8c-6.1,5.2-12.9,10.2-16.1,17.9c-9.4,22.7,4.3,45.9,11.6,67.9
						c6.1,18.4,10.2,39.6-1.9,59.2c-14.3,23.1-22.7,42-24,65.9c-0.1,1-0.1,2-0.1,3.1c-0.4,11.5,2.8,24.3,3.5,37.7
						c0.7,13.2,0.9,25.9,3.7,38c8.5,37.6,44,65.8,83.9,67.9c20.7,1.1,41.8-3.4,58.9-13.5c8-4.7,14.9-11.1,23.4-16.3
						c6.7-4.2,14.1-7.5,21.2-10.8c16.4-7.8,32.7-15.4,42.6-30.2c11.7-17.6,11.8-38.9,18.2-59c5.5-17.4,18.1-31.2,29-43.8
						c1.1-1.2,2.1-2.4,3.2-3.7c12.3-14.5,23.4-27.7,30.3-45.1c2.2-5.4,3.8-11,6.1-17c3.6-9.4,6.9-19.1,8.6-28.6
						c6-32.8-1.1-66.4-25.4-87.1c-3.2-2.8-6.6-5.2-10.1-7.4c-7.7-4.8-16.1-8.4-24.8-11.7c-12.6-4.8-24.4-10-37.2-17.1
						C283.9,125.9,276.4,122.1,268.6,118.8z"/>
					<path class="st2" d="M264.6,124c-7.5-4.2-15.4-7.2-23.7-9.1c-6.5-1.5-12.9-2.6-19.3-4.7c-0.9-0.3-1.8-0.6-2.7-0.9
						c-13.4-5-26.7-10.4-42.4-10.1c-12.4,0.3-24.4,4.3-34.3,10.5c-5.6,3.3-10.4,7.4-14.5,12c-4.2,4.7-7.7,9.7-11.2,15
						c-3.1,4.8-6.2,10.1-10.6,14.7c-5.1,5.3-10.7,9.4-15.3,13.9c-5.4,5.3-11.2,10.7-13.8,18.3c-8.3,24,6.7,47.7,15.2,70.1
						c7.1,18.8,12,40.6-0.9,60.3c-14.6,22.3-25.3,40.6-28.3,64.5c-0.1,1-0.2,2-0.3,3.1c-1.2,11.6,1.1,24.4,2,37.6
						c0.8,13,1.8,25.6,5.1,37.5c10.2,36.2,44.8,62.2,83.2,64.6c20,1.3,40.5-2.6,57.4-11.7c7.8-4.2,14.8-9.8,23-14.7
						c6.4-3.9,13.4-7,20.1-10.4c15.4-7.7,30.6-15.8,39.5-30.2c11.4-18.1,10.8-39.8,17.1-60.2c5.4-17.6,18.5-31.3,30.1-43.8
						c1.1-1.2,2.3-2.4,3.4-3.6c13.1-14.2,25.3-27.5,33.3-44.9c2.5-5.4,4.4-11,6.7-17c3.7-9.4,6.8-19.2,8.3-28.9
						c5.3-33.2-3.7-67.1-29.7-87.1c-3.4-2.7-7-5-10.8-7c-8.1-4.5-16.9-7.7-25.9-10.7c-13.1-4.3-25.1-9.2-38-16.1
						C280,131.1,272.4,127.4,264.6,124z"/>
					<path class="st2" d="M260.6,129.3c-7-4-14.4-7-22.1-9.1c-6-1.6-12-2.8-18.1-4.8c-0.8-0.3-1.7-0.5-2.5-0.8
						c-12.6-4.4-25.5-8.7-40.2-8.3c-11.6,0.4-23,3.8-32.6,9.1c-5.4,2.8-10.3,6.4-14.5,10.4c-4.4,4.1-8.1,8.6-11.8,13.4
						c-3.3,4.3-6.5,9.1-10.6,13.5c-4.7,5-9.7,9.3-13.7,14c-4.7,5.5-9.5,11.2-11.5,18.6c-7,25.4,9.1,49.4,18.7,72.3
						c8.2,19.2,13.9,41.6,0.1,61.4c-15,21.6-27.9,39.2-32.5,63.2c-0.2,1-0.4,2-0.5,3.1c-2,11.8-0.6,24.5,0.4,37.5
						c0.9,12.8,2.6,25.2,6.6,37c11.8,34.8,45.5,58.5,82.6,61.2c19.4,1.4,39.2-1.9,56-10c7.6-3.6,14.6-8.5,22.5-13
						c6.2-3.5,12.8-6.6,19-9.9c14.5-7.7,28.4-16.2,36.5-30.1c11-18.7,9.9-40.8,16.1-61.4c5.3-17.8,19-31.5,31.3-43.8
						c1.2-1.2,2.4-2.4,3.6-3.6c14-14,27.3-27.2,36.2-44.8c2.8-5.4,5-11,7.3-17c3.7-9.5,6.6-19.3,7.9-29.1c4.5-33.5-6.3-67.8-34-87
						c-3.7-2.6-7.5-4.7-11.4-6.7c-8.5-4.1-17.7-7-27-9.6c-13.5-3.8-25.7-8.4-38.8-15.1C276,136.3,268.4,132.6,260.6,129.3z"/>
					<path class="st2" d="M256.6,134.5c-6.5-3.8-13.4-6.8-20.5-9c-5.6-1.7-11.2-3.1-16.9-4.8c-0.8-0.2-1.6-0.5-2.4-0.7
						c-11.9-3.8-24.4-7-38.1-6.5c-10.9,0.4-21.6,3.3-30.9,7.7c-5.3,2.4-10.1,5.4-14.5,8.9c-4.5,3.6-8.6,7.4-12.4,11.7
						c-3.5,3.9-6.8,8.2-10.5,12.3c-4.3,4.8-8.7,9.2-12.1,14.1c-4,5.6-7.7,11.7-9.3,19c-5.5,26.7,11.5,51.1,22.3,74.6
						c9.1,19.7,15.8,42.6,1.2,62.6c-15.3,20.9-30.5,37.8-36.8,61.9c-0.3,1-0.5,2-0.7,3.1c-2.7,11.9-2.3,24.5-1.2,37.3
						c1,12.6,3.4,24.9,8,36.5c13.4,33.4,46.2,54.8,82,57.8c18.7,1.6,37.8-1.1,54.6-8.2c7.3-3.1,14.4-7.2,22-11.3
						c5.9-3.2,12.1-6.2,18-9.5c13.6-7.6,26.2-16.6,33.5-30c10.5-19.4,8.9-41.7,15-62.6c5.2-18.1,19.5-31.6,32.4-43.8
						c1.3-1.2,2.5-2.4,3.8-3.5c14.8-13.8,29.2-27,39.2-44.6c3.1-5.4,5.5-11,7.9-17c3.8-9.5,6.5-19.4,7.6-29.3
						c3.8-33.9-8.8-68.5-38.2-86.9c-3.9-2.4-7.9-4.5-12.1-6.3c-9-3.8-18.5-6.3-28.1-8.6c-13.9-3.3-26.4-7.5-39.6-14.2
						C272.1,141.5,264.4,137.8,256.6,134.5z"/>
					<path class="st2" d="M252.6,139.8c-6-3.6-12.4-6.6-19-8.9c-5.1-1.8-10.3-3.3-15.6-4.9c-0.7-0.2-1.5-0.4-2.2-0.6
						c-11.1-3.2-23.2-5.3-35.9-4.7c-10.1,0.5-20.1,2.7-29.2,6.3c-5.2,2-10,4.4-14.5,7.3c-4.7,3-9,6.3-13.1,10.1
						c-3.6,3.4-7,7.2-10.4,11.1c-4,4.5-7.6,9.1-10.5,14.2c-3.3,5.8-6,12.1-7,19.4c-3.8,28,13.8,52.9,25.9,76.8
						c10.1,20.1,17.7,43.7,2.2,63.7c-15.6,20.3-33,36.4-41.1,60.5c-0.3,1-0.7,2-1,3.1c-3.5,11.9-4,24.6-2.8,37.2
						c1.1,12.4,4.2,24.6,9.4,35.9c14.9,32.1,46.9,51.1,81.4,54.5c18,1.8,36.5-0.4,53.1-6.4c7.1-2.6,14.3-6,21.6-9.6
						c5.7-2.8,11.5-5.8,16.9-9c12.6-7.6,24-17,30.4-29.9c10-20,8-42.6,13.9-63.8c5.1-18.3,19.9-31.8,33.5-43.8
						c1.3-1.2,2.7-2.3,4-3.5c15.6-13.6,31.1-26.7,42.1-44.4c3.4-5.4,6.1-11,8.5-17c3.8-9.5,6.3-19.5,7.2-29.5
						c3-34.3-11.4-69.2-42.5-86.9c-4.1-2.3-8.4-4.3-12.7-5.9c-9.4-3.5-19.3-5.6-29.2-7.5c-14.4-2.8-27-6.7-40.4-13.2
						C268.2,146.7,260.5,143.1,252.6,139.8z"/>
					<path class="st2" d="M356.7,179.6c-13.7-7.1-28.6-9.6-43.7-12c-14.8-2.3-27.7-5.8-41.2-12.2c-7.6-3.6-15.3-7.1-23.2-10.4
						c-9.9-6-20.5-10.7-31.8-13.8c-43.7-12-111.8,5.1-115.5,59.6c-2,29.2,16.2,54.7,29.4,79.1c11.1,20.5,19.6,44.8,3.2,64.9
						c-15.9,19.6-35.6,35.1-45.4,59.2c-9.9,24.7-7.2,52.2,5.3,75.5c25.1,46.9,84.4,60.9,132.4,46.4c24.8-7.5,53.1-21.5,64.3-46.3
						c9.4-20.7,7-43.5,12.9-65c5-18.6,20.3-32,34.7-43.7c17.8-14.6,36.2-28.4,49.3-47.7C417.5,269.4,405,204.5,356.7,179.6z"/>
				</g>
				<g class="st1">
					<path class="st2" d="M-68,63.2C-44.7,44-14.5,32.7,15.4,35.3c29.9,2.6,58.9,20.2,72.4,47.1c8.4,16.9,11,37.1,23.5,51.2
						c14.8,16.9,40,20.5,62.1,17.3c22.2-3.3,43.2-12.2,65.2-16.3c17.1-3.2,34.7-3.5,51.9-0.8c15.8,2.5,32.4,8.2,41.8,21.2
						c13.2,18.2,8.3,43.6,15.4,65c5.5,16.5,18.2,29.8,32.7,39.4c14.5,9.5,30.9,15.7,47.2,21.8"/>
					<path class="st2" d="M-65.1,75.4C-58,69-49.7,63.6-40.9,59.3c12.3-6,25.5-9.8,39-11c6.9-0.6,13.9-0.5,20.8,0.3
						c19.9,2.3,39.3,11,54.6,23.5c7.8,6.3,14.5,13.6,19.6,21.7c4.4,7,7.7,14.5,11.2,21.7c4,8.3,8.3,16.1,15.1,22.4
						c4.1,3.8,9,6.7,14.3,8.9c14.2,5.8,31.9,6.3,48.1,4.6c18.6-2,36-6.2,54.4-10.2c3.7-0.8,7.3-1.5,11-2.1c17.4-2.8,35.1-3.3,52.4-1
						c16,2.1,32.7,7.2,42.8,19.6c13.4,16.6,9.6,40.3,17.1,59.8c5.8,15.3,18.2,27.6,32.1,36.5c14.1,9,29.7,15,45,21.1"/>
					<path class="st2" d="M-62.2,87.7c6.7-6.8,15.2-12.3,24.1-16.5c12.4-5.9,25.9-9.4,39.4-10.2c7-0.4,13.9-0.1,20.9,0.9
						C42.1,65,61.5,74,77.4,85.7c8.1,5.9,15.3,12.6,21,19.7c4.9,6.1,8.8,12.6,12.8,18.6c4.6,6.9,9.3,13.3,16.3,18.3
						c4.3,3,9.1,5.2,14.5,6.8c14.2,4.2,32,4,48.3,2.9c18.8-1.2,35.9-3.1,54.4-6.4c3.7-0.7,7.4-1.3,11.1-1.8
						c17.8-2.5,35.6-3.1,52.9-1.1c16.1,1.8,33.1,6.1,43.8,18c13.6,15,10.9,36.9,18.7,54.7c6.1,14,18.2,25.4,31.4,33.6
						c13.6,8.5,28.4,14.3,42.8,20.3"/>
					<path class="st2" d="M-59.3,100c6.4-7.2,15-12.7,24-16.8c12.6-5.8,26.3-9,39.9-9.4c7-0.2,14,0.4,21,1.6
						c19.9,3.5,39.2,13,55.8,23.9c8.4,5.6,16,11.5,22.3,17.6c5.4,5.3,9.9,10.7,14.4,15.5c5.2,5.6,10.3,10.5,17.5,14.2
						c4.4,2.2,9.3,3.8,14.6,4.8c14.3,2.7,32.1,1.7,48.4,1.2c18.9-0.5,35.7,0.1,54.5-2.7c3.8-0.5,7.5-1.1,11.3-1.5
						c18.2-2.2,36-2.9,53.4-1.3c16.3,1.5,33.4,5.1,44.8,16.4c13.6,13.5,12.3,33.5,20.4,49.6c6.5,12.8,18.2,23.1,30.8,30.8
						c13.2,8,27.2,13.6,40.6,19.6"/>
					<path class="st2" d="M-56.4,112.3c6.1-7.5,14.9-13.1,24-17.2c12.8-5.6,26.6-8.7,40.4-8.6c7.1,0,14.1,0.8,21.1,2.3
						c19.9,4.2,39.2,14,56.3,24.1c8.7,5.2,16.8,10.4,23.6,15.5c6,4.5,11.1,8.8,16.1,12.5c5.7,4.2,11.3,7.7,18.7,10
						c4.5,1.4,9.4,2.3,14.8,2.7c14.3,1.1,32.1-0.7,48.6-0.4c19,0.3,35.5,3.2,54.6,1c3.8-0.4,7.6-0.9,11.4-1.2
						c18.5-1.8,36.4-2.8,53.9-1.5c16.4,1.2,33.6,4.1,45.7,14.8c13.6,12,13.6,30.1,22.1,44.5c6.8,11.6,18.2,20.9,30.2,27.9
						c12.7,7.5,26,12.9,38.4,18.9"/>
					<path class="st2" d="M-53.5,124.6c5.7-7.9,14.7-13.6,23.9-17.5c12.9-5.5,27-8.3,40.9-7.9c7.1,0.2,14.2,1.2,21.1,2.9
						c20,4.8,39.1,14.9,56.9,24.3c9,4.8,17.5,9.3,25,13.5c6.5,3.6,12.2,6.9,17.7,9.4c6.3,2.9,12.3,4.9,19.9,5.9
						c4.6,0.6,9.5,0.8,14.9,0.6c14.4-0.4,32.2-3,48.7-2.1c19.2,1.1,35.4,6.4,54.6,4.8c3.9-0.3,7.7-0.6,11.5-0.9
						c18.9-1.4,36.9-2.6,54.4-1.6c16.5,0.8,33.8,3.1,46.7,13.2c13.6,10.6,15,26.8,23.8,39.4c7.2,10.4,18.2,18.6,29.6,25.1
						c12.3,7,24.8,12.2,36.2,18.1"/>
					<path class="st2" d="M-50.6,136.8c5.4-8.2,14.5-14,23.9-17.9c13.1-5.4,27.4-7.9,41.3-7.1c7.2,0.4,14.3,1.7,21.2,3.6
						c20,5.4,39.1,15.9,57.4,24.6c9.3,4.4,18.3,8.2,26.3,11.4c7,2.8,13.3,5,19.3,6.3c6.9,1.5,13.3,2.1,21.1,1.8
						c4.7-0.1,9.7-0.7,15.1-1.4c14.4-2,32.3-5.3,48.9-3.8c19.3,1.8,35.2,9.5,54.7,8.5c3.9-0.2,7.8-0.4,11.6-0.6
						c19.2-1.1,37.3-2.4,54.9-1.8c16.7,0.5,34,2.2,47.7,11.6c13.5,9.2,16.4,23.4,25.5,34.3c7.6,9.1,18.3,16.4,28.9,22.2
						c11.8,6.4,23.5,11.5,34,17.4"/>
					<path class="st2" d="M-47.7,149.1c5-8.6,14.3-14.4,23.8-18.2c13.3-5.3,27.7-7.5,41.8-6.3c7.3,0.6,14.3,2.1,21.3,4.2
						c20,6,39.1,16.9,58,24.8c9.6,4,19,7.1,27.6,9.3c7.5,1.9,14.4,3.1,21,3.2c7.4,0.2,14.3-0.8,22.3-2.3c4.8-0.9,9.8-2.2,15.2-3.5
						c14.4-3.6,32.4-7.6,49-5.5c19.4,2.6,35.1,12.7,54.8,12.3c4-0.1,7.9-0.2,11.8-0.4c19.6-0.7,37.7-2.2,55.4-2
						c16.8,0.2,34.1,1.3,48.7,10c13.3,7.9,17.9,20,27.1,29.1c8,7.9,18.3,14.1,28.3,19.3c11.4,5.9,22.3,10.8,31.8,16.7"/>
					<path class="st2" d="M-44.8,161.4c4.7-8.9,14.1-14.9,23.8-18.6c13.4-5.2,28.1-7.2,42.3-5.6c7.3,0.8,14.4,2.6,21.4,4.9
						c20,6.6,39.1,17.9,58.6,25c9.9,3.6,19.8,6,28.9,7.2c8,1.1,15.5,1.2,22.6,0.2c8-1.1,15.4-3.6,23.5-6.4c4.9-1.7,10-3.7,15.4-5.6
						c14.5-5.1,32.4-10,49.1-7.1c19.5,3.3,34.9,15.8,54.8,16c4,0,8,0,11.9-0.1c19.9-0.3,38.2-2,55.9-2.2c17-0.1,34.2,0.5,49.7,8.4
						c13.1,6.7,19.4,16.6,28.8,24c8.4,6.6,18.3,11.9,27.7,16.5c11,5.4,21.1,10.1,29.6,15.9"/>
					<path class="st2" d="M-41.9,173.7c4.3-9.2,14-15.3,23.7-18.9c13.6-5.1,28.4-6.8,42.7-4.8c7.4,1,14.5,3,21.5,5.5
						c20.1,7.2,39,18.9,59.1,25.2c10.2,3.2,20.5,4.9,30.3,5.2c8.5,0.2,16.7-0.7,24.2-2.9c8.6-2.4,16.4-6.3,24.7-10.5
						c5-2.5,10.1-5.1,15.5-7.6c14.5-6.7,32.5-12.3,49.3-8.8c19.7,4.1,34.7,19,54.9,19.8c4.1,0.2,8.1,0.2,12,0.2
						c20.3,0.1,38.6-1.9,56.4-2.3c17.1-0.5,34.2-0.2,50.7,6.8c12.9,5.5,20.8,13.1,30.5,18.9c8.9,5.3,18.3,9.6,27.1,13.6
						c10.6,4.8,19.8,9.4,27.4,15.2"/>
					<path class="st2" d="M-39,186c4-9.6,13.8-15.7,23.6-19.3c13.8-5,28.8-6.4,43.2-4c7.4,1.2,14.6,3.4,21.6,6.2
						c20.1,7.8,39,19.9,59.7,25.4c10.5,2.8,21.3,3.8,31.6,3.1c9.1-0.6,17.8-2.6,25.9-6c9.2-3.8,17.4-9.2,25.9-14.7
						c5.1-3.3,10.2-6.6,15.7-9.7c14.6-8.2,32.6-14.6,49.4-10.5c19.8,4.9,34.6,22.1,54.9,23.5c4.1,0.3,8.2,0.5,12.2,0.5
						c20.7,0.4,39-1.7,56.9-2.5c17.2-0.8,34.3-0.8,51.7,5.2c12.7,4.3,22.4,9.6,32.2,13.8c9.4,4,18.4,7.3,26.4,10.7
						c10.1,4.3,18.6,8.6,25.2,14.4"/>
					<path class="st2" d="M-36.1,198.3c3.6-9.9,13.6-16.1,23.6-19.7c13.9-4.9,29.2-6,43.7-3.2c28.9,5.6,53.2,26,81.9,32.4
						c20.2,4.5,42,1.6,60.4-8c15.6-8.2,28.3-20.7,42.9-30.6c14.6-9.8,32.7-16.9,49.6-12.2c19.9,5.6,34.4,25.3,55,27.3
						c47.7,4.6,81.4-9,122.4,1.8c41,10.7,68.4,15.6,82.7,30.2"/>
				</g>
				<use xlink:href="#SVGID_4_"  style="overflow:visible;fill:none;stroke:#F3735F;stroke-miterlimit:10;"/>
			</g>
		</g>
		<g>
			<g>
				<defs>
					<rect id="SVGID_6_" x="23.4" y="5.1" width="366.2" height="519.4"/>
				</defs>
				<clipPath id="SVGID_7_">
					<use xlink:href="#SVGID_6_"  style="overflow:visible;"/>
				</clipPath>
			</g>
		</g>
	</g>
</g>
<g>
	
		<image style="overflow:visible;opacity:0.4;" width="2933" height="2244" xlink:href="CBB0C10D.png"  transform="matrix(0.24 0 0 0.24 -73.5392 -13.6412)">
	</image>
	<g>
		<g>
			<g>
				<defs>
					<rect id="SVGID_8_" x="37.9" y="-7.1" width="366.2" height="519.4"/>
				</defs>
				<clipPath id="SVGID_9_">
					<use xlink:href="#SVGID_8_"  style="overflow:visible;"/>
				</clipPath>
			</g>
		</g>
		<g>
			<g>
				<defs>
					<rect id="SVGID_10_" x="37.9" y="-7.1" width="366.2" height="519.4"/>
				</defs>
				<clipPath id="SVGID_11_">
					<use xlink:href="#SVGID_10_"  style="overflow:visible;"/>
				</clipPath>
				<g class="st3">
					<path class="st4" d="M617.9,287.6c-11.6-19.4-40.2-23-60-12.2c-19.8,10.8-31.9,31.9-38.8,53.4c-7,21.5-9.9,44.1-17,65.6
						c-9.5,28.8-26.7,55-49.3,75.2c-5.5,4.9-11.7,9.6-19,10.3c-9.2,0.8-17.6-5.1-23.8-11.9c-6.1-6.9-10.9-15-17.7-21.2
						c-10.1-9.1-24.4-13.1-37.7-10.5c-10.6,2-20,7.9-28.9,13.8c-22.4,14.9-44.4,31.6-70.4,38.6c-26,7-57.6,1.5-72.6-20.9
						c-16.7-24.9-6.8-58.1-0.8-87.5c1.2-5.6,2.2-11.5,0.7-17.1c-2.3-8.9-10.6-15.3-19.4-18.1c-8.8-2.8-18.2-2.8-27.4-3.2
						c-20.9-0.9-42-4.4-60.8-13.8c-45-22.6-68.2-81.1-50.9-128.5"/>
					<path class="st4" d="M606.5,273.9c-13.2-18.1-41.8-19.3-60.8-6.9c-19,12.4-29.8,34.5-35.4,56.9c-4.1,16.6-5.8,34-10,51
						c-1.6,6.4-3.8,12.6-6.1,18.6c-10.3,26.7-25.6,51.7-47,70.6c-5.2,4.6-11.1,9-18,9.6c-8.7,0.8-16.7-4.8-22.5-11.2
						c-5.8-6.5-10.3-14.1-16.8-19.9c-9.6-8.5-23.2-12.3-35.7-10c-10,1.9-18.6,7.8-27.4,12.9c-4,2.3-8.2,3.9-12.3,6
						c-8.2,4.1-16.6,8.8-24.7,14c-6.4,4.1-12.4,8.4-18.8,12.2c-6.4,3.7-13.3,7.1-20.7,8.6c-5.7,1.2-11.3,1.1-17,0.7
						c-5.1-0.4-10.6-1-16-1.2c-4.8-0.1-9.2,0-13.5-0.2c-7.6-0.5-15-2.1-21.9-5.9c-5.1-2.8-9.9-6.7-13.4-11.9
						c-16.3-23.3-6.8-54.8-1.2-82.7c1.1-5.3,2-10.9,0.6-16.2c-2.2-8.5-10-14.5-18.3-17.2c-8.3-2.7-17.1-2.8-25.8-3.2
						c-19.7-1-39.6-4.5-57.2-13.5c-42.3-21.6-64.1-77-47.9-121.8"/>
					<path class="st4" d="M595,260.2c-14.8-16.7-43.4-15.6-61.6-1.6c-18.2,14-27.8,37.1-31.9,60.3c-3.2,17.6-3.7,36.1-8.1,54.2
						c-1.7,6.8-4.4,13.3-7.1,19.3c-10.9,24.6-24.4,48.4-44.7,66.1c-4.9,4.3-10.5,8.4-17,9c-8.2,0.7-15.8-4.4-21.3-10.5
						c-5.5-6-9.8-13.2-16-18.6c-9-8-21.9-11.6-33.7-9.4c-9.4,1.7-17.3,7.7-25.9,11.9c-4.4,2.1-9,3-13.6,4.6
						c-9.1,3.3-18.8,7.8-27.5,13.7c-6.9,4.7-12.9,9.9-19.4,14.5c-6.5,4.6-13.9,8.8-22.1,10.2c-6.5,1.1-12.6-0.1-18.7-1.3
						c-5.6-1.1-11.7-2.4-17.8-2.2c-5.4,0.1-10.1,1.2-14.5,1.8c-7.9,1-16,0.9-24.1-2.3c-5.9-2.4-11.8-6.4-15.9-12.2
						c-15.7-21.8-6.7-51.6-1.7-77.8c1-5,1.8-10.3,0.5-15.2c-2.1-8-9.4-13.7-17.2-16.3c-7.8-2.6-16-2.7-24.2-3.2
						C93,354,74.4,350.6,57.9,342C18.3,321.4-2.2,269.2,13,226.9"/>
					<path class="st4" d="M583.5,246.5c-16.3-15.4-45-11.9-62.4,3.6c-17.4,15.6-25.7,39.7-28.5,63.7c-2.2,18.6-1.5,38.2-6.2,57.4
						c-1.8,7.2-5.1,14-8.1,20.1C467.1,414,455,436.6,435.9,453c-4.6,4-9.9,7.8-16,8.3c-7.7,0.6-14.8-4.1-20.1-9.8
						c-5.2-5.6-9.3-12.3-15.1-17.3c-8.5-7.5-20.6-10.8-31.7-8.8c-8.9,1.6-16.1,7.5-24.3,10.9c-4.8,2-9.9,2-14.9,3.2
						c-10,2.4-20.9,6.8-30.2,13.4c-7.4,5.3-13.4,11.5-20.1,16.9c-6.7,5.4-14.6,10.5-23.5,11.7c-7.3,1-13.9-1.2-20.4-3.2
						c-6-1.8-12.9-3.7-19.6-3.2c-6,0.4-10.9,2.4-15.6,3.8c-8.3,2.5-17,3.9-26.3,1.3c-6.8-1.9-13.7-6.2-18.3-12.5
						c-15-20.3-6.7-48.4-2.2-73c0.9-4.7,1.6-9.6,0.3-14.3c-2-7.5-8.8-12.9-16.1-15.4c-7.2-2.5-15-2.7-22.6-3.3
						c-17.2-1.3-34.6-4.6-50-12.8c-36.9-19.6-56-68.6-41.9-108.5"/>
					<path class="st4" d="M572.1,232.8c-17.9-14.1-46.6-8.2-63.2,8.9c-16.6,17.2-23.5,42.4-25,67.2c-1.2,19.7,0.7,40.3-4.3,60.6
						c-1.9,7.6-5.7,14.6-9.2,20.9c-11.3,20.6-22.1,41.9-40.2,57.1c-4.4,3.7-9.3,7.2-15,7.7c-7.2,0.6-13.9-3.8-18.8-9
						c-4.9-5.2-8.8-11.4-14.3-16.1c-8-6.9-19.3-10-29.7-8.3c-8.3,1.4-15.7,5.6-22.8,10c-5.5,0.8-10.7,1-16.2,1.8
						c-10.9,1.6-23.1,5.8-33,13.1c-7.9,5.8-13.8,13-20.7,19.2c-6.8,6.3-15.3,12.2-24.9,13.3c-8.1,0.9-15.1-2.4-22.2-5.1
						c-6.4-2.5-14-5.1-21.4-4.3c-6.6,0.7-11.7,3.6-16.6,5.9c-8.6,3.9-18,6.9-28.5,4.8c-7.6-1.5-15.6-5.9-20.7-12.7
						c-14.2-18.8-6.6-45.2-2.6-68.2c0.8-4.4,1.4-9,0.2-13.4c-1.9-7-8.3-12.1-15-14.5c-6.7-2.4-13.9-2.7-21-3.3
						c-16-1.4-32.1-4.7-46.4-12.5C6.2,337.3-11.4,291.5,1.5,254.2"/>
					<path class="st4" d="M560.6,219.1c-19.5-12.8-48.2-4.5-64,14.2c-15.8,18.8-21.4,45-21.6,70.6c-0.2,20.7,2.8,42.4-2.4,63.8
						c-2,8-5.2,16-10.2,21.7c-7.8,20.4-21,38.7-37.9,52.6c-4.1,3.4-8.7,6.6-14,7c-6.7,0.5-13-3.5-17.6-8.3
						c-4.6-4.8-8.3-10.4-13.4-14.8c-7.5-6.4-18-9.3-27.7-7.7c-7.7,1.3-14.7,5.1-21.3,9c-5.9,0.3-11.6,0-17.6,0.4
						c-11.8,0.8-25.2,4.8-35.8,12.8c-8.3,6.4-14.3,14.5-21.3,21.6c-7,7.1-16,13.9-26.3,14.8c-8.9,0.8-16.4-3.5-23.9-7.1
						c-6.9-3.3-15.1-6.4-23.2-5.3c-7.2,1-12.6,4.8-17.7,7.9c-8.9,5.4-19.1,9.9-30.7,8.4c-8.5-1.1-17.4-5.6-23.2-13
						c-13.4-17.4-6.5-42-3.1-63.3c0.7-4.1,1.2-8.4,0.1-12.4c-1.8-6.5-7.7-11.2-13.9-13.6c-6.2-2.3-12.9-2.7-19.4-3.3
						c-14.8-1.5-29.6-4.8-42.8-12.2c-31.6-17.7-47.9-60.3-36-95.1"/>
					<path class="st4" d="M549.1,205.5c-21.1-11.5-49.9-0.9-64.9,19.5c-15,20.4-19.2,47.6-18.1,74c0.9,21.7,5,44.6-0.5,66.9
						c-2,8.4-5.7,16.8-11.2,22.4c-7.5,18.7-19.9,35.4-35.6,48c-3.8,3.1-8.1,6-13.1,6.4c-6.2,0.5-12-3.2-16.4-7.6
						c-4.3-4.4-7.8-9.5-12.6-13.5c-7-5.8-16.7-8.5-25.8-7.1c-7.2,1.1-13.6,4.5-19.8,8c-6.4-0.1-12.5-0.9-18.9-0.9
						c-12.8,0-27.4,3.8-38.5,12.6c-8.8,6.9-14.8,16-21.9,23.9c-7.1,7.9-16.6,15.6-27.7,16.3c-9.7,0.6-17.7-4.6-25.6-9
						c-7.3-4-16.2-7.8-25-6.4c-7.8,1.3-13.4,6-18.7,9.9c-9.3,6.9-20.1,13-32.9,12c-9.4-0.7-19.3-5.3-25.6-13.3
						c-12.5-16.1-6.5-38.7-3.5-58.5c0.6-3.8,1-7.7,0-11.5c-1.7-6-7.1-10.4-12.8-12.6c-5.7-2.2-11.8-2.6-17.8-3.4
						c-13.5-1.6-27.1-4.9-39.2-11.8c-28.9-16.7-43.8-56.1-33-88.5"/>
					<path class="st4" d="M537.7,191.8c-22.7-10.2-51.5,2.8-65.7,24.8c-14.2,22-17,50.3-14.7,77.5c1.9,22.8,7.1,46.7,1.4,70.1
						c-2.1,8.8-6.1,17.6-12.3,23.2c-7.1,17-18.7,32.1-33.4,43.5c-3.5,2.8-7.5,5.4-12.1,5.8c-5.7,0.4-11.1-2.9-15.1-6.9
						c-4-3.9-7.3-8.6-11.7-12.2c-6.5-5.3-15.5-7.8-23.8-6.6c-6.6,0.9-12.5,4-18.2,7.1c-6.9-0.5-13.3-1.9-20.2-2.3
						c-13.7-0.9-29.5,2.8-41.3,12.3c-9.3,7.5-15.2,17.5-22.5,26.3c-7.3,8.8-17.3,17.3-29.1,17.9c-10.5,0.5-18.9-5.8-27.4-10.9
						c-7.7-4.7-17.4-9.1-26.8-7.4c-8.4,1.5-14.2,7.2-19.7,12c-9.7,8.3-21.1,16-35.1,15.6c-10.2-0.3-21.2-5-28.1-13.6
						c-11.7-14.7-6.4-35.5-4-53.7c0.5-3.5,0.8-7.1-0.2-10.6c-1.6-5.5-6.5-9.6-11.7-11.7c-5.2-2.1-10.7-2.6-16.2-3.4
						c-12.3-1.7-24.7-5-35.6-11.5c-26.2-15.8-39.7-51.9-30-81.8"/>
					<path class="st4" d="M526.2,178.1c-24.2-8.9-53.1,6.5-66.5,30.1c-13.4,23.6-14.8,52.9-11.2,80.9c3,23.8,9.3,48.8,3.3,73.3
						c-2.2,9.2-6.5,18.4-13.3,24c-6.8,15.3-17.6,28.9-31.1,39c-3.3,2.5-6.9,4.8-11.1,5.1c-5.2,0.4-10.2-2.6-13.9-6.2
						c-3.7-3.5-6.8-7.7-10.8-10.9c-6-4.7-14.2-7-21.8-6c-6,0.8-11.5,3.4-16.7,6.1c-7.3-0.9-14.2-2.9-21.5-3.7
						c-14.6-1.7-31.7,1.8-44.1,12c-9.8,8-15.7,19-23.1,28.6c-7.4,9.6-18,19-30.5,19.4c-11.2,0.4-20.2-6.9-29.1-12.9
						c-8.2-5.4-18.5-10.5-28.6-8.4c-9,1.8-15.1,8.4-20.8,14c-10,9.8-22.2,19-37.3,19.2c-11.1,0.1-23.1-4.7-30.5-13.9
						c-10.8-13.4-6.3-32.3-4.5-48.8c0.4-3.2,0.6-6.5-0.3-9.6c-1.5-5-6-8.8-10.6-10.8c-4.7-2-9.7-2.6-14.6-3.4
						c-11.1-1.9-22.2-5-32-11.2c-23.5-14.8-35.7-47.8-27-75.1"/>
					<path class="st4" d="M514.7,164.4c-25.8-7.6-54.7,10.2-67.3,35.4c-12.6,25.2-12.5,55.5-7.8,84.3c4.1,24.8,11.4,50.9,5.2,76.5
						c-2.3,9.6-6.9,19.2-14.3,24.8c-6.5,13.6-16.4,25.6-28.8,34.5c-3,2.2-6.3,4.2-10.1,4.5c-4.8,0.3-9.2-2.3-12.7-5.4
						c-3.4-3.1-6.3-6.8-10-9.7c-5.5-4.2-12.9-6.3-19.8-5.5c-5.5,0.6-10.4,2.9-15.2,5.2c-7.8-1.3-15-3.9-22.8-5.1
						c-15.5-2.5-33.8,0.8-46.8,11.7c-10.3,8.6-16.2,20.5-23.7,31c-7.6,10.5-18.6,20.7-31.9,20.9c-12,0.2-21.5-8.1-30.8-14.8
						c-8.6-6.2-19.6-11.8-30.4-9.5c-9.6,2.1-15.9,9.6-21.8,16.1c-10.4,11.2-23.2,22-39.5,22.8c-11.9,0.5-25-4.4-32.9-14.2
						c-9.8-12.1-6.3-29.1-4.9-44c0.3-2.9,0.4-5.8-0.4-8.7c-1.4-4.6-5.4-8-9.6-9.9c-4.2-1.9-8.6-2.6-13-3.4
						c-9.8-2-19.7-5.1-28.4-10.9c-20.9-13.8-31.6-43.6-24-68.4"/>
					<path class="st4" d="M503.3,150.7c-27.4-6.2-56.3,13.9-68.1,40.6c-11.8,26.8-10.3,58.2-4.3,87.8c5.2,25.9,13.6,53,7.1,79.7
						c-2.4,10-7.4,20-15.3,25.5c-6.1,12-15.3,22.3-26.5,30c-2.7,1.9-5.7,3.6-9.1,3.8c-4.3,0.3-8.3-2-11.4-4.7
						c-3.1-2.7-5.7-5.9-9.1-8.4c-5-3.7-11.6-5.5-17.8-4.9c-4.9,0.5-9.4,2.3-13.6,4.2c-8.2-1.8-15.9-4.8-24.2-6.5
						c-16.4-3.3-36-0.2-49.6,11.4c-10.7,9.2-16.6,22-24.3,33.3c-7.7,11.3-19.3,22.4-33.3,22.5c-12.8,0.1-22.7-9.2-32.6-16.7
						c-9-6.9-20.7-13.2-32.2-10.5c-10.2,2.4-16.8,10.8-22.9,18.1c-10.7,12.7-24.2,25-41.7,26.3c-12.8,1-26.8-4.2-35.4-14.5
						c-8.9-10.7-6.2-25.9-5.4-39.2c0.2-2.6,0.3-5.2-0.6-7.7c-1.3-4.1-4.8-7.2-8.5-9c-3.7-1.8-7.6-2.5-11.3-3.5
						c-8.6-2.1-17.2-5.2-24.8-10.5c-18.2-12.8-27.5-39.4-21-61.8"/>
					<path class="st4" d="M491.8,137c-29-4.9-57.9,17.6-68.9,45.9c-11,28.4-8,60.8-0.9,91.2c6.3,26.9,15.7,55.1,9,82.9
						c-2.5,10.4-7.8,20.8-16.4,26.3c-5.8,10.3-14.2,19.1-24.3,25.5c-2.4,1.5-5.1,3-8.1,3.2c-3.8,0.2-7.4-1.7-10.2-4
						c-2.8-2.3-5.2-5-8.3-7.1c-4.5-3.1-10.3-4.7-15.8-4.3c-4.3,0.3-8.3,1.8-12.1,3.2c-8.7-2.2-16.8-5.8-25.5-7.9
						c-17.4-4.2-38.1-1.2-52.4,11.1c-11.2,9.7-17.1,23.5-24.9,35.7c-7.9,12.2-20,24-34.7,24c-13.6,0-24-10.4-34.3-18.7
						c-9.4-7.6-21.9-14.5-34-11.6c-10.8,2.7-17.6,12-23.9,20.1c-11.1,14.2-25.2,28-43.9,29.9c-13.6,1.4-28.6-3.9-37.8-14.8
						c-7.9-9.5-6.1-22.6-5.9-34.3c0.1-2.2,0.1-4.6-0.7-6.8c-1.2-3.6-4.2-6.4-7.4-8.1C7.3,416.8,4,416,0.8,415
						c-7.4-2.2-14.7-5.3-21.2-10.2c-15.5-11.9-23.5-35.2-18-55.1"/>
					<path class="st4" d="M480.4,123.3c-30.6-3.6-59.6,21.3-69.8,51.2c-10.2,30-5.8,63.4,2.6,94.6c7.4,27.9,17.9,57.2,11,86.1
						c-2.6,10.8-8.2,21.6-17.4,27.1c-5.4,8.6-13,15.8-22,20.9c-2.2,1.2-4.5,2.4-7.1,2.5c-3.3,0.2-6.4-1.4-8.9-3.3
						c-2.5-1.9-4.7-4.1-7.4-5.8c-4-2.6-9-4-13.8-3.8c-3.8,0.2-7.2,1.2-10.6,2.3c-9.2-2.6-17.6-6.8-26.8-9.3
						c-18.3-5-40.3-2.2-55.1,10.8c-11.7,10.3-17.6,25.1-25.6,38c-8,13-20.7,25.7-36.2,25.5c-14.4-0.2-25.3-11.5-36-20.6
						c-9.9-8.3-23-15.9-35.8-12.6c-11.4,2.9-18.4,13.2-25,22.2c-11.5,15.6-26.3,31.1-46.1,33.5c-14.5,1.8-30.5-3.7-40.2-15.1
						c-7-8.2-6.1-19.4-6.3-29.5c0-1.9-0.1-3.9-0.8-5.9c-1.1-3.1-3.6-5.6-6.3-7.2c-2.7-1.6-5.4-2.5-8.1-3.5
						c-6.2-2.3-12.2-5.3-17.6-9.9c-12.8-10.9-19.4-31.1-15.1-48.4"/>
					<path class="st4" d="M468.9,109.6c-32.1-2.3-61.2,24.9-70.6,56.5c-9.4,31.6-3.5,66,6,98.1c8.6,28.9,20.1,59.4,12.9,89.3
						c-2.7,11.2-8.6,22.4-18.4,27.9c-5.1,6.9-11.9,12.5-19.7,16.4c-1.9,0.9-3.9,1.8-6.1,1.9c-2.8,0.1-5.5-1.1-7.7-2.5
						c-2.2-1.4-4.2-3.2-6.6-4.5c-3.5-2-7.7-3.2-11.8-3.2c-3.2,0-6.2,0.7-9.1,1.3c-9.6-3-18.5-7.8-28.1-10.7
						c-19.2-5.8-42.4-3.2-57.9,10.5c-12.2,10.8-18,26.6-26.2,40.4c-8.2,13.8-21.3,27.4-37.6,27.1c-15.2-0.3-26.5-12.6-37.8-22.5
						c-10.3-9.1-24.1-17.2-37.6-13.6c-12,3.2-19.3,14.4-26,24.2c-11.8,17.1-27.3,34.1-48.3,37.1c-15.3,2.2-32.3-3.5-42.7-15.4
						c-6-6.9-6-16.2-6.8-24.7c-0.2-1.6-0.3-3.3-0.9-4.9c-1-2.6-3.1-4.8-5.2-6.3c-2.1-1.5-4.4-2.5-6.5-3.5c-4.9-2.4-9.7-5.4-14-9.6
						c-10.1-9.9-15.3-26.9-12.1-41.7"/>
					<path class="st4" d="M457.4,95.9c-33.7-1-62.8,28.6-71.4,61.8c-8.6,33.2-1.2,68.6,9.5,101.5c9.7,29.9,22.2,61.5,14.8,92.5
						c-2.8,11.6-9.1,23.2-19.5,28.6c-4.8,5.2-10.7,9.3-17.5,11.9c-1.6,0.6-3.3,1.2-5.2,1.3c-2.3,0-4.5-0.8-6.5-1.8
						c-1.9-1-3.7-2.2-5.7-3.3c-3-1.5-6.5-2.5-9.8-2.7c-2.6-0.2-5.1,0.1-7.5,0.3c-10.1-3.4-19.3-8.7-29.4-12.1
						c-20.1-6.6-44.6-4.2-60.7,10.2c-12.6,11.4-18.5,28.1-26.8,42.8c-8.3,14.7-22,29.1-39,28.6c-16-0.5-27.8-13.8-39.5-24.5
						c-10.7-9.8-25.2-18.6-39.4-14.7c-12.6,3.5-20.1,15.6-27.1,26.2c-12.2,18.6-28.3,37.1-50.5,40.7c-16.2,2.6-34-3.3-45.1-15.7
						c-5-5.6-5.9-13-7.3-19.8c-0.3-1.3-0.5-2.7-1.1-4c-0.9-2.1-2.5-3.9-4.1-5.3c-1.6-1.4-3.3-2.5-4.9-3.6c-3.7-2.6-7.3-5.5-10.4-9.2
						c-7.5-9-11.3-22.7-9.1-35"/>
					<path class="st4" d="M446,82.2c-35.3,0.3-64.4,32.3-72.2,67.1c-7.8,34.8,1.1,71.2,12.9,105c10.8,30.9,24.4,63.6,16.7,95.7
						c-2.9,12.1-10.2,22.9-20.5,29.4c-4.8,3-9.6,6-15.2,7.4c-1.3,0.3-2.7,0.6-4.2,0.6c-1.8,0-3.6-0.5-5.2-1.1
						c-1.6-0.6-3.2-1.3-4.9-2c-2.5-1-5.2-1.7-7.8-2.1c-2.1-0.3-4.1-0.2-6-0.6c-10.9-2.4-20.2-9.7-30.7-13.5
						c-21-7.5-46.7-5.2-63.4,9.9c-13.1,11.9-18.9,29.6-27.4,45.1c-8.5,15.5-22.7,30.8-40.4,30.2c-16.8-0.6-29.1-14.9-41.3-26.4
						c-11.2-10.5-26.4-19.9-41.2-15.7c-13.2,3.8-20.9,16.8-28.1,28.3c-12.5,20-29.3,40.1-52.7,44.3c-17.1,3-35.6-3.2-47.5-16
						c-4.1-4.4-5.9-9.7-7.7-15c-0.4-1-0.7-2-1.2-3.1c-0.8-1.6-1.9-3.1-3-4.4c-1.1-1.3-2.3-2.4-3.3-3.6c-2.5-2.7-4.8-5.6-6.8-8.9
						c-4.8-8-7.2-18.5-6.1-28.4"/>
					<path class="st4" d="M434.5,68.5c-36.9,1.6-66,36-73,72.4c-7,36.3,3.4,73.7,16.4,108.4c12,31.9,26.5,65.7,18.6,98.8
						c-3,12.5-9.9,24.9-21.5,30.2c-10.7,4.9-23.4,2.9-34.4-1.3c-11-4.3-21-10.7-32.1-14.8c-22-8.3-48.9-6.2-66.2,9.6
						c-13.6,12.5-19.4,31.1-28,47.5c-8.6,16.4-23.3,32.5-41.8,31.7c-17.6-0.7-30.3-16.1-43-28.3c-11.6-11.2-27.5-21.3-43-16.7
						c-13.8,4-21.8,18-29.2,30.3C44.5,457.6,27,479.3,2.5,484c-17.9,3.4-37.1-3.3-50-16.3C-60.4,454.8-67.1,436.2-67,418"/>
				</g>
				<use xlink:href="#SVGID_10_"  style="overflow:visible;fill:none;stroke:#263C82;stroke-miterlimit:10;"/>
			</g>
		</g>
		<g>
			<g>
				<defs>
					<rect id="SVGID_12_" x="37.9" y="-7.1" width="366.2" height="519.4"/>
				</defs>
				<clipPath id="SVGID_13_">
					<use xlink:href="#SVGID_12_"  style="overflow:visible;"/>
				</clipPath>
			</g>
		</g>
	</g>
</g>
<text transform="matrix(0.7466 0 0 1 121.869 283.7944)" class="st5 st6 st7">Bizz</text>
<text transform="matrix(0.9971 0 0 1 121.868 410.9653)" class="st5 st6 st8">Art</text>
</svg>
