<?xml version="1.0" encoding="utf-8"?>
<!-- Generator: Adobe Illustrator 23.0.3, SVG Export Plug-In . SVG Version: 6.00 Build 0)  -->
<svg version="1.1" id="Layer_1" xmlns="http://www.w3.org/2000/svg" xmlns:xlink="http://www.w3.org/1999/xlink" x="0px" y="0px"
	 viewBox="0 0 67.8 67.6" style="enable-background:new 0 0 67.8 67.6;" xml:space="preserve">
<style type="text/css">
	.st0{fill:#BDC3E3;stroke:#4957A6;stroke-miterlimit:10;}
	.st1{fill:#2A2D7C;}
	.st2{fill:#101142;}
	.st3{fill:#F7925E;}
</style>
<path class="st0" d="M67.2,35.7l-1.3-2.4c-0.7,0.4-1.4,0.2-1.8-0.5c-0.4-0.7-0.2-1.4,0.5-1.8l-1.3-2.4c-0.7,0.4-1.4,0.2-1.8-0.5
	c-0.4-0.7-0.2-1.4,0.5-1.8l-1.3-2.4c-0.7,0.4-1.4,0.2-1.8-0.5c-0.6-0.5-0.4-1.3,0.2-1.7l-1.3-2.4c-0.7,0.4-1.4,0.2-1.9-0.4
	c-2.6,0.8-5.4-0.2-6.9-2.7L14.5,36.4c1.7,2.9,0.7,6.6-2.1,8.3L23.1,63c2.8-1.7,6.5-0.7,8.2,2.1L65.5,45c-1.4-2.5-0.9-5.5,1.1-7.4
	C66.4,36.9,66.6,36.1,67.2,35.7"/>
<path class="st1" d="M60.7,42L31.2,59.4c-1.6,1-3.6,0.4-4.6-1.2l-8.4-14.4c-1-1.6-0.4-3.6,1.2-4.6l29.5-17.3c1.6-1,3.6-0.4,4.6,1.2
	l8.4,14.4C62.9,39,62.3,41.1,60.7,42 M20.3,40.7c-0.8,0.5-1.1,1.4-0.6,2.2l8.4,14.5c0.5,0.8,1.4,1.1,2.2,0.6l29.5-17.3
	c0.8-0.5,1.1-1.4,0.6-2.2L52,23.9c-0.5-0.8-1.4-1.1-2.2-0.6L20.3,40.7"/>
<g>
	<path class="st2" d="M41,40.3l-0.9,0.6c-0.1,0.1-0.2,0-0.2,0l-0.8-1.1l-0.8,0.3l0.6,1.2l0,0.2L38,42.1c-0.1,0.1-0.1,0-0.2,0
		l-3.4-7.5l0-0.2l1.4-0.8c0.1-0.1,0.3-0.1,0.2,0l5,6.6L41,40.3 M38.2,38.6l-1.9-2.8l-0.1,0.1l1.5,3L38.2,38.6"/>
	<path class="st2" d="M41.8,33l2.2,3.7c0.5,0.8,0.2,1.7-0.6,2.1l-1.6,0.9c-0.1,0.1-0.2,0-0.2,0l-3.7-6c-0.1-0.1,0-0.2,0-0.2l1.6-0.9
		C40.4,32.1,41.4,32.2,41.8,33 M40.6,33.8c-0.1-0.1-0.3-0.2-0.5-0.1l-0.4,0.2l2.4,4.1l0.4-0.2c0.1-0.1,0.2-0.2,0.1-0.5L40.6,33.8"/>
	<path class="st2" d="M46.1,28.9l3.7,6c0.1,0.1,0,0.2,0,0.2l-1,0.5c-0.1,0.1-0.2,0-0.2,0l-1.7-2.8l0.8,3c0,0.1,0,0.1-0.1,0.1
		l-2.2-2.1l1.7,2.8c0.1,0.1,0,0.2,0,0.2l-1,0.5c-0.1,0.1-0.2,0-0.2,0l-3.7-6c-0.1-0.1,0-0.2,0-0.2l0.9-0.6c0.1-0.1,0.2,0,0.2,0
		l2.8,2.7l-1.1-3.7l0-0.2l0.9-0.6C46,28.9,46.1,28.9,46.1,28.9"/>
	<path class="st2" d="M52,33.6c0.1,0.1,0,0.2,0,0.2L51,34.4c-0.1,0.1-0.2,0-0.2,0l-3.7-6c-0.1-0.1,0-0.2,0-0.2l0.9-0.6
		c0.1-0.1,0.2,0,0.2,0L52,33.6"/>
	<path class="st2" d="M52.1,25.4l0.6,0.9c0.1,0.1,0,0.2,0,0.2L51.9,27l3,5c0.1,0.1,0,0.2,0,0.2l-0.9,0.6l-0.2,0l-3-5l-0.8,0.5
		c-0.1,0.1-0.2,0-0.2,0l-0.6-0.9c-0.1-0.1,0-0.2,0-0.2l2.8-1.6C51.9,25.3,52,25.3,52.1,25.4"/>
	<path class="st2" d="M48.2,47.5l-0.4,0.3c-0.8,0.5-1.7,0.2-2.2-0.6l-2.9-4.8c-0.5-0.8-0.2-1.7,0.6-2.1l0.4-0.3
		c0.8-0.5,1.7-0.2,2.2,0.6l2.8,4.8C49.1,46.1,48.9,47,48.2,47.5 M44.1,41.2c-0.3,0.1-0.3,0.3-0.2,0.4l2.9,4.7
		c0.1,0.1,0.2,0.2,0.5,0.1l0.1-0.1c0.1-0.1,0.2-0.3,0.1-0.5l-3-4.6C44.5,41.1,44.2,41.1,44.1,41.2"/>
	<path class="st2" d="M50,37.9l3.7,6c0.1,0.1,0,0.2,0,0.2L53,44.5c-0.1,0.1-0.3,0.1-0.2,0L50,42.4l1.7,2.8c0.1,0.1,0,0.2,0,0.2
		l-0.9,0.6c-0.1,0.1-0.2,0-0.2,0l-3.7-6c-0.1-0.1,0-0.2,0-0.2l0.7-0.4c0.1-0.1,0.3-0.1,0.2,0l3,2.4l-1.9-3c-0.1-0.1,0-0.2,0-0.2
		l0.9-0.6L50,37.9"/>
	<path class="st2" d="M56.5,40.9l0.6,0.9c0.1,0.1,0,0.2,0,0.2l-2.3,1.4c-0.1,0.1-0.2,0-0.2,0l-3.7-6c-0.1-0.1,0-0.2,0-0.2l2.3-1.4
		c0.1-0.1,0.2,0,0.2,0l0.6,0.9c0.1,0.1,0,0.2,0,0.2l-1.2,0.8l0.8,1.2l1.1-0.7c0.1-0.1,0.2,0,0.2,0l0.6,0.9c0.1,0.1,0,0.2,0,0.2
		l-1.1,0.7l0.8,1.4l1.2-0.8C56.4,40.8,56.6,40.8,56.5,40.9"/>
</g>
<g id="Group_8_1_" transform="translate(-479.702 -321.104)">
	<path id="Path_36_1_" class="st3" d="M508.9,367.4c-1.3-2.2-2.9-3.2-3-3.3c-0.2-0.1-0.5-0.1-0.6,0.2c-0.1,0.2,0,0.5,0.2,0.7
		c0,0,1.5,0.9,2.6,2.9c0.7,1.2,1.1,2.5,1.2,3.9c0,0.1,0,0.1,0.1,0.2c0.1,0.2,0.3,0.3,0.5,0.3c0.3,0,0.4-0.2,0.4-0.5
		C510.1,370.2,509.6,368.7,508.9,367.4z"/>
	<path id="Path_37_1_" class="st3" d="M509.4,367c0.2,0.3,0.5,0.4,0.8,0.2l1.8-1c0.3-0.2,0.3-0.5,0.2-0.8c-0.2-0.3-0.5-0.4-0.8-0.2
		l-1.8,1C509.4,366.4,509.3,366.8,509.4,367z"/>
	<path id="Path_38_1_" class="st3" d="M515.8,372l-0.3-0.5c0,0,0,0,0,0c2.5-2.8,2.1-7.3-0.8-10c-1.7-1.6-3.9-2.3-6.1-1.9
		c0,0,0-0.1,0-0.1l-0.3-0.5c-0.2-0.3-0.5-0.4-0.8-0.3l-2.4,1.4c-0.3,0.2-0.4,0.5-0.2,0.8l0.3,0.5c0,0,0,0,0,0
		c-2.6,2.7-2.4,7.2,0.4,10c1.7,1.8,4.2,2.6,6.5,2.1l0.2,0.4c0.2,0.3,0.5,0.4,0.8,0.3l2.4-1.4C515.9,372.7,516,372.3,515.8,372z
		 M513.4,372c-2.8,1.6-6.4,0.4-8.1-2.6c-1.7-3-0.8-6.7,1.9-8.3c2.8-1.6,6.4-0.4,8.1,2.6l0,0C517.1,366.7,516.2,370.4,513.4,372
		L513.4,372z"/>
	<path id="Path_39_1_" class="st3" d="M514.4,369.3c0.1-0.2,0-0.5-0.3-0.6l-0.7-0.3l0.1-0.8c0-0.2-0.1-0.5-0.4-0.5
		c-0.2,0-0.4,0.1-0.5,0.3l-0.1,0.6l-0.6-0.2c-0.2-0.1-0.5,0-0.5,0.2c-0.1,0.2,0,0.5,0.3,0.6l0.7,0.3l-0.1,0.8c0,0.2,0.1,0.5,0.4,0.5
		c0.2,0,0.4-0.1,0.5-0.3l0.1-0.6l0.6,0.2C514.1,369.6,514.4,369.5,514.4,369.3z"/>
	<path id="Path_40_1_" class="st3" d="M508.5,362.7c-0.1,0.2,0,0.5,0.3,0.6l0,0l0.7,0.3l-0.1,0.8c0,0.2,0.1,0.5,0.4,0.5
		s0.4-0.1,0.5-0.3l0.1-0.6l0.6,0.2c0.2,0.1,0.5,0,0.5-0.2s0-0.5-0.3-0.6l-0.7-0.3l0.1-0.8c0-0.2-0.1-0.5-0.4-0.5
		c-0.2,0-0.4,0.1-0.5,0.3l-0.1,0.6l-0.6-0.2C508.8,362.3,508.5,362.4,508.5,362.7L508.5,362.7z"/>
</g>
<path class="st0" d="M54.5,18l-1.7-2.1c-0.6,0.5-1.4,0.4-1.9-0.2c-0.5-0.6-0.4-1.4,0.2-1.9l-1.7-2.1c-0.6,0.5-1.4,0.4-1.9-0.2
	c-0.5-0.6-0.4-1.4,0.2-1.9L46,7.5c-0.6,0.5-1.4,0.4-1.9-0.2c-0.7-0.4-0.6-1.2-0.1-1.7l-1.7-2.1c-0.6,0.5-1.4,0.4-1.9-0.1
	C38,4.6,35,4.1,33.1,1.9L2.7,27.4C4.9,30,4.5,33.8,2,35.9l13.6,16.3c2.5-2.1,6.3-1.8,8.4,0.7l30.4-25.5c-1.8-2.2-1.8-5.3-0.2-7.5
	C53.9,19.3,54,18.5,54.5,18"/>
<path class="st1" d="M49.2,25.3L23,47.3c-1.4,1.2-3.5,1-4.7-0.4L7.6,34.1c-1.2-1.4-1-3.5,0.4-4.7l26.2-22c1.4-1.2,3.5-1,4.7,0.4
	l10.7,12.8C50.8,22,50.6,24.1,49.2,25.3 M9.1,30.7c-0.7,0.6-0.8,1.6-0.2,2.3l10.7,12.9c0.6,0.7,1.6,0.8,2.3,0.2l26.2-22
	c0.7-0.6,0.8-1.6,0.2-2.3L37.6,8.9C37,8.2,36,8.1,35.3,8.7L9.1,30.7"/>
<g>
	<path class="st2" d="M29.5,26.9l-0.8,0.7c-0.1,0.1-0.2,0-0.2,0l-0.9-0.9l-0.7,0.5l0.8,1l0,0.2l-0.8,0.7c-0.1,0.1-0.1,0-0.2,0
		l-4.6-6.8l0-0.2l1.3-1.1c0.1-0.1,0.2-0.1,0.2,0l6,5.7L29.5,26.9 M26.4,25.6L24,23.2l-0.1,0.1l2,2.7L26.4,25.6"/>
	<path class="st2" d="M29.1,19.5l2.7,3.2c0.6,0.7,0.5,1.6-0.2,2.2l-1.4,1.2c-0.1,0.1-0.2,0-0.2,0l-4.6-5.3c-0.1-0.1,0-0.2,0-0.2
		l1.4-1.2C27.5,18.9,28.5,18.8,29.1,19.5 M28,20.5c-0.1-0.1-0.4-0.1-0.5,0l-0.4,0.2l3.1,3.6l0.4-0.2c0.1-0.1,0.1-0.2,0-0.5L28,20.5"
		/>
	<path class="st2" d="M32.6,14.7l4.6,5.3c0.1,0.1,0,0.2,0,0.2L36.3,21c-0.1,0.1-0.2,0-0.2,0l-2.1-2.4l1.3,2.8c0,0.1,0,0.1-0.1,0.1
		l-2.5-1.7l2.1,2.4c0.1,0.1,0,0.2,0,0.2l-0.9,0.7c-0.1,0.1-0.2,0-0.2,0l-4.6-5.3c-0.1-0.1,0-0.2,0-0.2l0.8-0.7c0.1-0.1,0.2,0,0.2,0
		l3.2,2.2l-1.7-3.5l0-0.2l0.8-0.7C32.5,14.7,32.6,14.7,32.6,14.7"/>
	<path class="st2" d="M39.2,18.4c0.1,0.1,0,0.2,0,0.2l-0.8,0.7c-0.1,0.1-0.2,0-0.2,0L33.5,14c-0.1-0.1,0-0.2,0-0.2l0.8-0.7
		c0.1-0.1,0.2,0,0.2,0L39.2,18.4"/>
	<path class="st2" d="M37.9,10.3l0.7,0.8c0.1,0.1,0,0.2,0,0.2L38,11.9l3.8,4.4c0.1,0.1,0,0.2,0,0.2l-0.8,0.7l-0.2,0l-3.8-4.4
		l-0.7,0.6c-0.1,0.1-0.2,0-0.2,0l-0.7-0.8c-0.1-0.1,0-0.2,0-0.2l2.5-2C37.7,10.3,37.8,10.3,37.9,10.3"/>
	<path class="st2" d="M37.8,32.8l-0.4,0.4c-0.7,0.6-1.6,0.5-2.2-0.2l-3.7-4.3c-0.6-0.7-0.5-1.6,0.2-2.2l0.4-0.4
		c0.7-0.6,1.6-0.5,2.2,0.2l3.6,4.3C38.5,31.2,38.3,32.2,37.8,32.8 M32.7,27.2c-0.2,0.1-0.2,0.4-0.1,0.5l3.7,4.2
		c0.1,0.1,0.2,0.1,0.5,0l0.1-0.1c0.1-0.1,0.1-0.4,0-0.5l-3.7-4.1C33,27.1,32.8,27.1,32.7,27.2"/>
	<path class="st2" d="M37.9,23l4.6,5.3c0.1,0.1,0,0.2,0,0.2L42,29c-0.1,0.1-0.2,0.1-0.2,0l-3.1-1.6l2.1,2.4c0.1,0.1,0,0.2,0,0.2
		L40,30.8c-0.1,0.1-0.2,0-0.2,0l-4.6-5.3c-0.1-0.1,0-0.2,0-0.2l0.6-0.5c0.1-0.1,0.2-0.1,0.2,0l3.3,1.8l-2.4-2.7
		c-0.1-0.1,0-0.2,0-0.2l0.8-0.7L37.9,23"/>
	<path class="st2" d="M44.9,24.9l0.7,0.8c0.1,0.1,0,0.2,0,0.2l-2,1.8c-0.1,0.1-0.2,0-0.2,0l-4.6-5.3c-0.1-0.1,0-0.2,0-0.2l2-1.8
		c0.1-0.1,0.2,0,0.2,0l0.7,0.8c0.1,0.1,0,0.2,0,0.2l-1.1,0.9l0.9,1l0.9-0.8c0.1-0.1,0.2,0,0.2,0l0.7,0.8c0.1,0.1,0,0.2,0,0.2
		l-0.9,0.8l1.1,1.3l1.1-0.9C44.8,24.8,44.9,24.8,44.9,24.9"/>
</g>
<g id="Group_8" transform="translate(-479.702 -321.104)">
	<path id="Path_36" class="st3" d="M498.5,355.8c-1.6-2-3.4-2.7-3.5-2.7c-0.3-0.1-0.5,0-0.6,0.3c-0.1,0.2,0.1,0.5,0.3,0.6
		c0,0,1.6,0.7,3.1,2.4c0.9,1.1,1.5,2.3,1.8,3.6c0,0.1,0.1,0.1,0.1,0.2c0.1,0.1,0.3,0.2,0.5,0.2c0.3-0.1,0.4-0.3,0.3-0.6
		C500.2,358.4,499.5,357,498.5,355.8z"/>
	<path id="Path_37" class="st3" d="M499,355.4c0.2,0.3,0.6,0.3,0.8,0.1l1.6-1.3c0.2-0.2,0.3-0.6,0-0.8c-0.2-0.2-0.6-0.3-0.8-0.1
		l-1.6,1.3C498.8,354.8,498.8,355.1,499,355.4z"/>
	<path id="Path_38" class="st3" d="M506.1,359.2l-0.3-0.4c0,0,0,0,0,0c2-3.2,0.9-7.6-2.4-9.8c-1.9-1.3-4.2-1.6-6.3-0.9
		c0,0,0-0.1-0.1-0.1l-0.3-0.4c-0.2-0.3-0.6-0.3-0.9-0.1l-2.1,1.7c-0.3,0.2-0.3,0.6-0.1,0.9l0.3,0.4c0,0,0,0,0,0
		c-2.1,3.1-1.1,7.5,2.1,9.8c2,1.5,4.6,1.8,6.7,0.9l0.3,0.4c0.2,0.3,0.6,0.3,0.9,0.1l2.1-1.7C506.3,359.9,506.3,359.5,506.1,359.2z
		 M503.7,359.6c-2.5,2-6.3,1.5-8.5-1.2c-2.2-2.7-1.9-6.5,0.5-8.5c2.5-2,6.3-1.5,8.5,1.2l0,0C506.5,353.8,506.2,357.6,503.7,359.6
		L503.7,359.6z"/>
	<path id="Path_39" class="st3" d="M504.3,356.8c0-0.2-0.1-0.5-0.4-0.5l-0.8-0.2l0-0.8c0-0.2-0.2-0.4-0.4-0.4
		c-0.2,0-0.4,0.2-0.4,0.4l0,0.6l-0.6-0.1c-0.2-0.1-0.5,0.1-0.5,0.3c0,0.2,0.1,0.5,0.4,0.5l0.8,0.2l0,0.8c0,0.2,0.2,0.4,0.4,0.4
		s0.4-0.2,0.4-0.4l0-0.6l0.6,0.1C504,357.1,504.2,357,504.3,356.8z"/>
	<path id="Path_40" class="st3" d="M497.3,351.2c0,0.2,0.1,0.5,0.4,0.5l0,0l0.8,0.2l0,0.8c0,0.2,0.2,0.4,0.4,0.4
		c0.2,0,0.4-0.2,0.4-0.4l0-0.6l0.6,0.1c0.2,0.1,0.5-0.1,0.5-0.3s-0.1-0.5-0.4-0.5l-0.8-0.2l0-0.8c0-0.2-0.2-0.4-0.4-0.4
		c-0.2,0-0.4,0.2-0.4,0.4l0,0.6l-0.6-0.1C497.6,350.9,497.3,351,497.3,351.2L497.3,351.2z"/>
</g>
</svg>
